<svg width="266" height="415" viewBox="0 0 266 415" fill="none" xmlns="http://www.w3.org/2000/svg">
<path fill-rule="evenodd" clip-rule="evenodd" d="M133.373 38.2994C128.567 32.6587 125.315 25.7458 125.858 17.9998C127.424 -4.31865 158.492 0.59113 164.536 11.8556C170.579 23.12 169.861 51.6932 162.05 53.7065C158.936 54.5094 152.3 52.5426 145.547 48.472L149.786 78.4612H124.756L133.373 38.2994Z" fill="#57331F"/>
<path fill-rule="evenodd" clip-rule="evenodd" d="M146.798 20.4647C147.756 33.8108 150.29 40.4838 154.401 40.4838C160.568 40.4838 165.799 36.5692 168.505 36.5692C170.477 36.5692 170.037 39.0374 168.73 40.8674C167.651 42.3772 162.398 43.8325 162.398 46.1732C162.398 48.5139 166.548 46.703 166.548 48.0913C166.548 50.3876 167.278 54.7051 163.292 54.7051C159.259 54.7051 147.694 53.2352 145.712 47.2489C144.433 43.3855 143.606 35.3798 143.231 23.2318C142.987 23.2027 142.738 23.1877 142.485 23.1877C139.029 23.1877 136.228 25.9892 136.228 29.4451C136.228 31.1995 136.95 32.7852 138.113 33.9214C136.665 35.9651 135.042 38.1 133.183 40.3029C126.198 36.112 121.014 23.8437 127.844 12.0582C129.731 6.28473 134.004 3.20089 139.051 1.76896C143.14 0.0588291 147.384 -0.13399 150.966 0.891217C157.989 1.49359 164.26 3.63501 166.037 4.90676C166.037 11.5554 164.749 13.5281 153.745 13.3542C151.041 14.7821 148.963 17.241 146.798 20.4647Z" fill="#191847"/>
<path fill-rule="evenodd" clip-rule="evenodd" d="M122.748 164.764L173.935 294.319L208.266 403.848H221.823L169.338 164.764L122.748 164.764Z" fill="#3D2216"/>
<path fill-rule="evenodd" clip-rule="evenodd" d="M112.441 164.764C111.896 210.29 103.947 271.585 102.677 274.423C101.83 276.315 72.6018 300.374 14.9919 346.601L24.3292 356.592C92.3035 316.959 127.863 294.499 131.009 289.213C135.727 281.284 151.088 208.318 163.421 164.764H112.441Z" fill="#57331F"/>
<path fill-rule="evenodd" clip-rule="evenodd" d="M13.7429 343.265C10.6071 344.373 8.44685 345.424 7.26233 346.418C5.82168 347.627 3.92079 349.631 1.55968 352.43C2.96203 354.102 15.5652 369.122 39.3692 397.49C44.2228 395.413 45.7455 392.983 43.9373 390.201C42.1291 387.42 40.6492 385.09 39.4978 383.213L31.2609 354.435C31.1024 353.881 30.525 353.561 29.9713 353.719C29.9618 353.722 29.9524 353.725 29.943 353.728L25.5478 355.122C22.4984 353.701 20.3612 352.26 19.1359 350.8C18.1405 349.614 17.2449 347.573 16.4491 344.679L16.4491 344.679C16.1438 343.568 14.9958 342.915 13.885 343.22C13.8371 343.234 13.7897 343.249 13.7429 343.265Z" fill="#E4E4E4"/>
<path fill-rule="evenodd" clip-rule="evenodd" d="M202.715 398.791C201.549 401.906 200.965 404.236 200.965 405.783C200.965 407.663 201.279 410.408 201.905 414.016C204.087 414.016 223.694 414.016 260.726 414.016C262.255 408.962 261.373 406.234 258.079 405.831C254.786 405.428 252.05 405.064 249.872 404.74L222.532 392.552C222.006 392.317 221.39 392.554 221.155 393.08C221.151 393.089 221.147 393.098 221.144 393.107L219.386 397.37C216.337 398.792 213.86 399.503 211.954 399.503C210.405 399.503 208.267 398.878 205.538 397.627L205.538 397.627C204.491 397.147 203.253 397.607 202.773 398.654C202.752 398.699 202.733 398.745 202.715 398.791Z" fill="#E4E4E4"/>
<path fill-rule="evenodd" clip-rule="evenodd" d="M157.164 392.566L221.619 385.571L173.85 164.764H116.12L157.164 392.566Z" fill="#69A1AC"/>
<path fill-rule="evenodd" clip-rule="evenodd" d="M28.3245 330.48L70.6035 380.524C115.135 331.888 141.097 300.152 148.49 285.318C155.882 270.484 162.528 230.299 168.426 164.764H103.432C100.21 222.419 98.038 252.588 96.9163 255.271C95.7946 257.954 72.9306 283.024 28.3245 330.48Z" fill="#89C5CC"/>
<path fill-rule="evenodd" clip-rule="evenodd" d="M213.973 151.831L243.516 180.651C252.112 184.318 259.156 188.367 264.646 192.797C265.881 194.287 267.225 197.14 261.416 195.863C255.606 194.586 249.439 193.505 248.347 195.394C247.255 197.283 250.472 200.178 248.454 202.65C247.109 204.299 242.585 199.056 234.882 186.921L204.161 168.809L213.973 151.831ZM69.5081 125.747L92.3447 125.833C74.9516 182.185 65.7188 211.69 64.6462 214.348C62.233 220.328 67.3397 229.436 69.5235 234.331C62.4109 237.514 63.1687 225.727 54.1964 229.901C46.0069 233.711 39.7771 240.615 30.3153 234.777C29.152 234.059 27.8772 231.356 30.9572 229.244C38.6306 223.983 49.6884 214.774 51.1824 211.743C53.2199 207.61 59.3284 178.944 69.5081 125.747Z" fill="#57331F"/>
<path fill-rule="evenodd" clip-rule="evenodd" d="M139.096 60.9651L148.114 59.4183C162.32 109.636 235.311 143.866 239.791 162.638C241.435 169.523 236.48 173.003 239.039 175.1L227.318 183.681C225.333 181.365 221.097 185.601 212.251 182.638C203.405 179.674 139.096 120.427 139.096 60.9651Z" fill="#191847"/>
<path fill-rule="evenodd" clip-rule="evenodd" d="M154.265 67.6414C153.225 134.125 191.658 151.084 183.098 177.755C176.028 199.779 108.364 223.455 96.6548 201.866C91.9152 193.127 89.7648 182.558 89.5208 171.067C86.5282 179.895 84.1615 187.495 82.4205 193.867C79.417 204.859 67.7731 206.606 67.7731 210.841L52.4325 206.606C53.473 200.854 46.2411 198.052 48.1802 185.2C56.8683 127.614 80.2119 85.8717 118.211 59.9732L118.604 54.3513C118.765 52.0531 120.758 50.3202 123.056 50.4809L151.146 52.4451C153.444 52.6058 155.177 54.5993 155.016 56.8975L154.265 67.6414Z" fill="#2F3676"/>
</svg>
